<?xml version="1.0" standalone="no"?>
<!DOCTYPE svg PUBLIC "-//W3C//DTD SVG 20010904//EN"
 "http://www.w3.org/TR/2001/REC-SVG-20010904/DTD/svg10.dtd">
<svg version="1.0" xmlns="http://www.w3.org/2000/svg"
 width="945.000000pt" height="945.000000pt" viewBox="0 0 945.000000 945.000000"
 preserveAspectRatio="xMidYMid meet">
<metadata>
Created by potrace 1.14, written by Peter Selinger 2001-2017
</metadata>
<g transform="translate(0.000000,945.000000) scale(0.100000,-0.100000)"
fill="#000000" stroke="none">
<path d="M4405 8480 c-3 -5 -16 -10 -28 -10 -12 0 -56 -2 -97 -6 -113 -9 -243
-11 -264 -4 -30 10 -70 -9 -89 -42 -9 -16 -22 -28 -29 -27 -7 1 -29 -5 -49
-14 -19 -9 -50 -15 -68 -15 -20 1 -37 -5 -42 -14 -9 -15 -59 -14 -59 2 0 13
-42 19 -62 9 -10 -5 -18 -16 -18 -23 0 -21 -28 -39 -63 -41 -27 -1 -89 -25
-174 -67 -12 -6 -41 -9 -65 -6 -45 5 -83 -3 -83 -18 -1 -5 -7 -19 -15 -31 -11
-16 -17 -19 -27 -11 -10 8 -13 7 -13 -4 0 -16 -43 -33 -107 -43 -24 -4 -43
-11 -43 -16 0 -5 -7 -9 -16 -9 -9 0 -22 -7 -29 -16 -6 -9 -20 -18 -31 -19 -33
-4 -64 -17 -64 -26 0 -5 -9 -9 -20 -9 -11 0 -20 -4 -20 -10 0 -5 -7 -10 -15
-10 -8 0 -15 -4 -15 -10 0 -5 -12 -10 -26 -10 -14 0 -23 -4 -19 -9 7 -12 -29
-33 -53 -30 -31 3 -42 -1 -42 -14 0 -8 -9 -24 -20 -37 -11 -12 -17 -26 -15
-31 3 -4 -11 -5 -31 -3 -44 5 -75 -16 -66 -48 4 -18 2 -20 -16 -16 -12 4 -25
2 -28 -3 -3 -5 -10 -6 -16 -3 -6 4 -8 2 -4 -4 3 -6 2 -13 -4 -17 -6 -4 -8 -10
-6 -14 3 -4 1 -13 -4 -21 -7 -12 -12 -11 -29 4 -19 17 -20 17 -40 -3 -12 -12
-25 -21 -31 -21 -5 0 -19 -10 -32 -23 -13 -13 -43 -30 -67 -37 -24 -8 -45 -21
-48 -29 -22 -72 -51 -95 -83 -67 -8 7 -23 12 -33 11 -18 -3 -56 -43 -57 -59 0
-5 -11 -18 -24 -30 -13 -11 -28 -30 -34 -41 -8 -15 -21 -20 -49 -20 -30 0 -38
-4 -41 -20 -8 -51 -13 -64 -33 -70 -11 -4 -18 -12 -16 -18 2 -6 -15 -21 -37
-33 -24 -13 -40 -29 -38 -37 1 -8 -5 -17 -13 -21 -9 -3 -13 -10 -10 -16 3 -5
2 -10 -4 -10 -6 0 -21 -11 -35 -25 -14 -14 -32 -25 -39 -25 -17 0 -30 -27 -21
-41 3 -5 -4 -21 -16 -36 -12 -16 -18 -34 -14 -45 4 -14 -3 -22 -30 -33 -20 -9
-50 -17 -67 -19 -34 -4 -52 -23 -44 -44 6 -16 -33 -74 -45 -67 -11 7 -33 -22
-27 -37 6 -19 -31 -88 -48 -88 -8 0 -15 -5 -15 -12 0 -7 -19 -32 -42 -55 -28
-28 -48 -61 -59 -96 -13 -41 -21 -53 -40 -55 -40 -6 -52 -22 -45 -63 6 -37
-10 -69 -35 -69 -14 0 -38 -61 -32 -78 4 -10 -1 -13 -18 -10 -13 1 -24 -1 -24
-7 0 -5 -6 -20 -13 -33 -7 -12 -10 -27 -7 -32 3 -6 1 -10 -5 -10 -6 0 -8 -10
-4 -27 6 -22 4 -25 -10 -20 -31 12 -56 -10 -54 -48 1 -19 -5 -41 -12 -50 -7
-8 -9 -15 -5 -15 4 0 2 -7 -5 -15 -7 -8 -9 -15 -4 -15 5 0 1 -5 -8 -11 -11 -6
-18 -22 -18 -39 0 -16 -7 -36 -16 -44 -8 -9 -12 -16 -8 -16 3 0 1 -6 -5 -14
-6 -8 -14 -30 -16 -49 -6 -44 -34 -117 -45 -117 -20 0 -38 -32 -34 -57 3 -14
2 -33 -2 -42 -4 -9 -8 -19 -9 -23 -2 -5 -4 -9 -5 -10 -1 -2 -3 -16 -4 -33 -1
-16 -7 -31 -14 -31 -7 -1 -16 -2 -21 -3 -14 -2 -22 -32 -12 -45 8 -10 8 -35 1
-56 -1 -3 -2 -13 -1 -23 2 -10 -8 -21 -22 -26 -32 -12 -37 -28 -22 -66 13 -32
10 -59 -7 -49 -5 3 -9 -2 -8 -12 1 -11 1 -21 0 -24 -1 -3 -3 -13 -5 -23 -2
-10 -7 -26 -10 -35 -14 -33 -9 -85 9 -98 19 -13 14 -34 -8 -34 -12 0 -21 -17
-24 -44 0 -5 -14 -15 -31 -22 -34 -14 -39 -37 -16 -68 19 -26 19 -65 0 -72
-10 -4 -13 -13 -10 -25 4 -11 2 -19 -5 -19 -7 0 -5 -8 4 -22 20 -29 20 -48 0
-48 -11 0 -14 -6 -9 -20 3 -11 2 -20 -3 -20 -6 0 -8 -10 -5 -21 4 -14 0 -25
-11 -31 -20 -11 -21 -47 -1 -54 11 -5 12 -10 6 -18 -7 -8 -6 -21 3 -38 10 -18
11 -29 3 -37 -13 -13 -15 -71 -3 -71 5 0 6 -24 2 -52 -8 -67 -8 -64 -1 -123 3
-27 6 -70 8 -95 1 -25 5 -50 9 -56 9 -13 1 -109 -11 -133 -12 -26 -8 -38 21
-61 23 -17 27 -27 24 -59 -2 -21 -6 -43 -9 -48 -4 -6 -1 -16 7 -22 8 -7 12
-24 9 -44 -7 -54 -5 -68 12 -87 15 -16 15 -23 4 -55 -11 -29 -11 -38 -1 -44 9
-5 11 -17 6 -34 -4 -20 -2 -27 8 -27 8 0 20 -12 26 -26 7 -14 15 -23 20 -21 6
5 7 -112 0 -157 -2 -12 6 -24 19 -31 14 -7 19 -16 14 -24 -11 -17 -2 -51 13
-51 15 0 35 -35 39 -70 2 -14 13 -29 25 -35 12 -5 22 -16 22 -23 0 -17 26 -43
34 -35 3 4 6 -5 7 -18 2 -79 14 -113 44 -129 14 -7 25 -21 25 -31 0 -25 21
-69 30 -64 5 3 11 -6 14 -19 3 -13 15 -26 26 -29 17 -4 26 -27 21 -59 0 -3 12
-19 28 -35 89 -87 126 -128 140 -156 8 -15 18 -27 23 -27 4 0 8 -7 8 -15 0 -8
9 -19 20 -25 11 -6 18 -15 15 -19 -2 -5 6 -11 20 -13 14 -3 25 -1 25 4 0 5 5
6 11 3 6 -4 8 -13 5 -20 -3 -8 2 -19 10 -25 8 -7 14 -21 14 -31 0 -11 5 -19
10 -19 6 0 10 -6 10 -12 0 -15 35 -63 47 -64 18 -1 84 -34 101 -51 25 -24 72
-106 72 -125 0 -21 29 -31 46 -17 11 9 16 5 26 -17 15 -34 38 -55 55 -49 13 4
144 -61 154 -77 4 -6 11 -8 17 -4 5 3 13 -1 16 -9 3 -10 14 -14 30 -11 13 2
27 1 31 -2 4 -4 12 -7 18 -7 7 0 11 -11 9 -24 -3 -33 14 -50 49 -49 18 1 35
-6 43 -17 9 -13 20 -16 40 -11 30 7 72 -11 125 -55 23 -19 41 -26 58 -23 14 3
31 6 37 7 6 1 11 -7 11 -18 1 -11 7 -19 14 -17 7 1 18 -2 25 -7 7 -6 17 -6 26
-1 15 9 48 -4 65 -26 6 -8 28 -16 50 -20 21 -3 60 -20 85 -37 25 -17 50 -33
55 -34 6 -1 37 -10 70 -18 33 -9 71 -17 84 -19 13 -2 26 -8 30 -14 3 -6 25 -9
49 -8 31 2 43 -1 47 -13 5 -18 56 -25 66 -9 4 6 11 4 20 -4 8 -7 28 -15 44
-16 77 -9 100 -9 105 -1 3 5 26 -5 50 -21 44 -29 80 -39 80 -21 0 30 143 13
160 -19 16 -29 59 -34 84 -11 26 25 61 27 70 5 4 -11 14 -14 38 -9 18 3 38 6
43 6 6 -1 64 -3 130 -5 72 -2 121 -8 123 -15 2 -7 12 -5 28 5 13 9 24 12 24 7
0 -5 11 -15 24 -21 18 -8 27 -7 40 6 9 9 16 12 16 7 0 -6 14 -10 30 -11 17 -1
30 2 30 5 0 15 62 42 78 35 9 -4 21 -6 26 -5 6 1 19 -2 30 -8 12 -5 30 -11 40
-13 11 -2 18 -7 17 -12 -5 -18 29 -28 62 -18 18 5 45 10 61 11 16 0 42 7 58
15 19 10 37 12 57 6 16 -4 32 -6 34 -3 3 2 8 -4 11 -14 6 -19 56 -31 56 -14 0
17 32 21 46 6 17 -16 54 -21 54 -6 0 16 84 50 97 39 7 -5 17 -7 22 -4 5 4 12
2 15 -3 6 -10 23 -9 126 8 36 6 79 13 95 16 72 11 99 17 124 27 40 17 53 19
90 18 18 0 41 5 50 13 9 7 25 13 36 13 11 -1 32 7 47 16 32 22 42 22 58 2 14
-16 66 -16 63 1 -2 16 17 34 31 29 7 -3 26 1 42 7 16 7 32 12 37 11 4 -1 7 3
7 9 0 6 6 9 14 6 7 -3 36 5 64 18 28 13 53 21 55 18 3 -3 11 4 18 16 l13 20
32 -20 c32 -19 33 -19 46 -1 7 10 23 24 36 31 12 7 20 16 18 20 -7 11 43 33
55 25 12 -7 109 17 104 26 -10 16 48 55 83 57 63 4 71 6 76 20 4 8 14 11 28 8
16 -4 31 1 48 17 26 24 51 32 60 18 12 -19 48 2 54 31 6 31 36 41 36 13 0 -11
6 -15 19 -11 10 2 25 1 32 -4 9 -5 23 1 41 19 43 44 85 72 107 72 12 0 21 6
21 14 0 16 27 29 41 20 15 -9 49 6 49 23 0 13 2 13 17 2 13 -11 17 -11 20 -1
3 6 11 12 18 12 7 0 15 4 17 10 2 5 13 11 25 13 24 3 53 25 53 39 0 17 24 35
42 30 10 -2 18 -8 18 -12 0 -18 41 4 46 25 4 15 23 32 52 47 50 24 64 37 56
50 -3 4 -2 14 3 21 4 6 8 18 8 26 0 20 34 22 61 4 15 -9 24 -11 24 -4 0 6 13
17 29 26 16 8 33 25 36 37 11 36 102 118 130 118 14 0 25 5 25 11 0 6 7 17 15
25 8 9 15 12 15 8 0 -4 14 5 30 21 17 16 30 35 30 42 0 8 5 11 10 8 6 -3 18 7
27 23 10 17 31 36 48 44 25 11 29 18 27 41 -2 18 1 26 7 22 6 -3 11 -1 11 4 0
6 7 11 15 11 7 0 18 6 22 13 4 7 21 21 36 30 24 16 26 21 15 35 -11 13 -11 15
4 10 28 -11 127 93 119 126 -1 5 5 6 13 3 10 -4 18 5 27 31 12 36 63 95 74 84
3 -3 5 1 5 9 0 18 81 95 116 111 13 6 24 19 24 29 0 10 5 21 11 25 6 3 9 17 6
30 -4 21 -1 24 22 22 34 -3 51 8 51 33 0 11 7 30 15 42 12 19 21 49 24 80 1 5
5 6 11 2 15 -9 49 30 39 46 -5 8 -3 16 3 20 7 4 13 16 14 26 9 65 18 90 37
106 72 60 68 54 50 85 -15 27 -15 29 11 56 14 16 26 33 26 38 0 5 9 18 19 30
14 14 17 26 12 42 -6 14 -3 24 7 32 14 10 19 29 25 96 1 15 10 33 19 40 14 11
16 20 8 52 -6 30 -5 42 6 53 7 8 18 11 24 8 10 -6 11 -5 15 30 1 11 6 31 11
45 4 14 9 57 10 95 0 39 5 80 11 93 5 13 8 37 7 53 -1 18 3 29 11 29 7 0 15
14 19 30 3 17 6 33 7 38 1 4 9 12 18 18 12 10 13 17 4 36 -11 25 -7 78 7 78 9
0 4 102 -8 170 -5 25 -8 72 -8 105 1 55 3 61 29 73 26 12 37 47 18 54 -5 2
-11 12 -13 23 -1 11 -6 22 -10 25 -9 7 -10 58 -4 132 4 47 1 61 -15 82 -18 23
-18 27 -5 32 14 5 14 8 1 27 -18 25 -19 59 -4 74 11 11 3 61 -21 144 -5 16 -4
31 2 37 7 7 4 24 -11 55 -12 24 -20 58 -19 75 1 18 -5 39 -15 50 -9 10 -17 25
-17 33 0 8 -12 31 -26 52 -15 23 -23 45 -19 56 3 11 -1 26 -10 35 -9 9 -13 16
-8 16 4 0 2 4 -6 9 -8 5 -16 23 -18 41 -1 18 -15 46 -29 63 -19 23 -22 32 -13
38 10 6 9 13 -6 31 -11 13 -23 25 -27 28 -4 3 -3 12 1 19 10 16 3 51 -11 51
-5 0 -6 4 -3 10 3 5 -6 12 -20 16 -26 6 -32 18 -15 29 22 13 7 38 -61 105 -39
39 -69 76 -66 82 2 7 -13 34 -34 59 -22 26 -39 51 -39 56 0 10 -42 61 -90 112
-13 14 -24 29 -23 33 2 4 -6 9 -16 13 -10 3 -26 23 -36 44 -9 22 -28 49 -41
60 -13 12 -24 25 -24 31 0 5 -7 10 -15 10 -8 0 -17 11 -21 25 -6 23 -33 45
-76 61 -10 3 -18 13 -18 20 0 8 -9 19 -20 26 -11 7 -20 17 -20 23 0 21 -40 45
-70 41 -28 -3 -35 2 -69 53 -21 31 -38 58 -38 61 0 3 -5 15 -12 28 -9 17 -18
21 -32 17 -13 -4 -28 0 -41 12 -11 10 -21 16 -22 15 0 -2 -12 1 -26 6 -14 6
-33 13 -43 16 -12 4 -16 13 -13 31 4 21 -6 38 -24 40 -20 3 -50 18 -50 25 0 5
-7 7 -15 4 -8 -4 -15 -1 -15 5 0 6 -9 11 -20 11 -11 0 -20 6 -20 14 0 20 -60
45 -97 40 -30 -3 -35 0 -57 44 -13 26 -33 56 -45 66 -12 11 -21 25 -21 31 0
17 -20 24 -51 18 -23 -4 -62 21 -71 47 -2 6 -22 14 -45 17 -32 4 -43 10 -45
26 -2 15 -17 24 -53 35 -27 7 -53 19 -57 26 -4 6 -8 7 -8 2 0 -5 -7 -3 -15 4
-8 7 -15 9 -15 5 0 -5 -8 -1 -18 8 -10 10 -22 14 -25 10 -4 -4 -22 8 -40 25
-18 18 -37 29 -40 25 -12 -12 -37 -12 -34 0 2 11 -59 28 -78 20 -7 -2 -34 6
-60 18 -36 17 -45 26 -42 40 4 15 0 19 -18 19 -12 0 -28 7 -35 15 -7 8 -9 15
-6 15 4 0 2 9 -4 20 -6 11 -15 18 -21 14 -5 -3 -17 0 -25 7 -11 9 -21 9 -39 1
-14 -7 -27 -7 -30 -2 -3 5 -12 7 -20 3 -9 -3 -15 1 -15 8 0 20 -39 35 -83 34
-25 -1 -37 3 -37 12 0 7 -6 13 -13 13 -7 0 -17 10 -22 23 -6 12 -19 22 -30 23
-11 0 -28 4 -38 8 -9 5 -23 4 -30 -2 -11 -9 -51 -2 -46 8 1 3 -1 15 -5 28 -7
22 -40 31 -51 13 -5 -9 -21 -8 -75 5 -14 3 -34 6 -44 5 -11 0 -26 9 -34 20 -9
13 -18 17 -29 11 -35 -20 -104 14 -90 44 3 9 -47 33 -57 27 -16 -10 -76 -14
-76 -5 0 5 -11 14 -25 20 -21 10 -31 9 -52 -6 -15 -9 -28 -16 -30 -14 -2 1 -4
2 -5 1 -2 0 -16 -2 -31 -3 -30 -2 -47 17 -47 53 0 25 -30 43 -51 30 -18 -11
-89 -12 -89 -1 0 5 -29 9 -63 10 -35 1 -76 6 -91 12 -40 15 -86 22 -86 12 0
-4 -12 -7 -27 -6 -16 1 -28 3 -28 4 0 4 -47 10 -106 14 -36 2 -83 9 -103 16
-23 7 -41 8 -49 2 -18 -14 -56 -21 -62 -12 -3 4 -14 6 -25 3 -11 -3 -26 -1
-33 4 -21 17 -46 23 -52 13z"/>
</g>
</svg>
